<svg viewBox="0 0 169 43" xmlns="http://www.w3.org/2000/svg" class="w-[130px] h-[40px] -md:w-[100px] fill-brand-light dark:fill-white" aria-label="company logo"><path d="M21.0199 42.0398C15.4451 42.0398 10.0986 39.8252 6.15658 35.8832C2.21459 31.9412 0 26.5947 0 21.0199C0 15.4451 2.21459 10.0986 6.15658 6.15658C10.0986 2.21459 15.4451 0 21.0199 0C22.662 0.00186057 24.2985 0.193717 25.8965 0.571741C26.4785 0.709997 26.9818 1.07379 27.2956 1.5831C27.6093 2.0924 27.708 2.7055 27.5697 3.28751C27.4314 3.86952 27.0676 4.37278 26.5583 4.68656C26.049 5.00034 25.4359 5.09895 24.8539 4.9607C21.3554 4.12557 17.6799 4.45554 14.3861 5.90043C11.0923 7.34532 8.36035 9.82612 6.60545 12.9657C4.85056 16.1054 4.16873 19.7321 4.66361 23.2947C5.15849 26.8573 6.803 30.1608 9.34719 32.7033C11.8914 35.2457 15.1961 36.888 18.759 37.3804C22.3219 37.8728 25.9482 37.1885 29.0866 35.4314C32.225 33.6744 34.7039 30.9407 36.1466 27.6459C37.5892 24.3511 37.9166 20.6754 37.0791 17.1775C37.0106 16.8893 36.9996 16.5904 37.0466 16.298C37.0937 16.0055 37.1979 15.7252 37.3532 15.473C37.667 14.9637 38.1703 14.5999 38.7523 14.4617C39.3343 14.3234 39.9474 14.422 40.4567 14.7358C40.966 15.0496 41.3298 15.5529 41.468 16.1349C41.8461 17.7358 42.0379 19.375 42.0398 21.0199C42.0398 26.5947 39.8252 31.9412 35.8832 35.8832C31.9412 39.8252 26.5947 42.0398 21.0199 42.0398Z"></path><path d="M36.3898 5.64108C35.7596 5.01468 34.9072 4.66309 34.0187 4.66309C33.1302 4.66309 32.2778 5.01468 31.6477 5.64108C31.6218 5.67378 31.5937 5.70468 31.5636 5.73356C31.057 6.28269 30.7439 6.98254 30.6724 7.72625V7.72625C30.6724 7.84396 30.6724 7.96167 30.6724 8.08779C30.6724 8.21391 30.6724 8.24754 30.6724 8.33162C30.5885 9.18186 30.3238 10.0044 29.8961 10.744C29.4684 11.4836 28.8876 12.1232 28.1925 12.6201C27.4974 13.1169 26.7042 13.4594 25.866 13.6246C25.0277 13.7899 24.1638 13.774 23.3322 13.5782L22.8446 13.4521C22.2093 13.2955 21.5565 13.2221 20.9023 13.2335C18.9877 13.2619 17.1514 13.9988 15.7482 15.3018L15.5128 15.512C14.0533 16.9715 13.2334 18.951 13.2334 21.015C13.2334 23.0791 14.0533 25.0585 15.5128 26.518C16.9723 27.9775 18.9518 28.7975 21.0158 28.7975C23.0799 28.7975 25.0593 27.9775 26.5188 26.518C26.8287 26.1894 27.11 25.835 27.3596 25.4586C27.9941 24.5616 28.4314 23.5404 28.643 22.4623C28.8546 21.3841 28.8356 20.2734 28.5872 19.2031C28.5402 19.0653 28.5009 18.9249 28.4695 18.7827C28.4695 18.7827 28.4695 18.7407 28.4695 18.7155C28.2746 17.8767 28.2626 17.0058 28.4344 16.1621C28.6063 15.3183 28.9579 14.5215 29.4653 13.8258C29.9727 13.1301 30.624 12.5518 31.3749 12.1304C32.1259 11.709 32.9588 11.4543 33.8169 11.3837H33.9515H34.3635C35.1386 11.3087 35.8637 10.9669 36.415 10.4168C36.5423 10.2791 36.6603 10.133 36.7681 9.97958C37.2299 9.32904 37.4453 8.53555 37.376 7.74082C37.3067 6.94609 36.9571 6.20187 36.3898 5.64108V5.64108Z"></path><path d="M79.3796 16.9409C77.3328 16.9424 75.3675 17.743 73.9022 19.1722C72.437 20.6013 71.5876 22.546 71.535 24.5922C71.535 29.0988 74.7552 32.2434 79.3796 32.2434C81.4279 32.2441 83.3953 31.4445 84.8624 30.0151C86.3295 28.5857 87.18 26.6397 87.2326 24.5922C87.2326 20.0855 84.004 16.9409 79.3796 16.9409ZM82.6419 24.5922C82.6664 25.0317 82.5996 25.4715 82.4457 25.884C82.2918 26.2964 82.0541 26.6725 81.7475 26.9885C81.441 27.3044 81.0724 27.5535 80.6648 27.7199C80.2573 27.8863 79.8197 27.9665 79.3796 27.9553C78.9409 27.9615 78.5055 27.878 78.1003 27.7098C77.695 27.5417 77.3284 27.2925 77.0229 26.9775C76.7174 26.6626 76.4795 26.2886 76.3238 25.8784C76.1681 25.4682 76.0978 25.0305 76.1173 24.5922C76.0928 24.1526 76.1596 23.7128 76.3135 23.3003C76.4674 22.8879 76.7051 22.5119 77.0116 22.1959C77.3182 21.8799 77.6868 21.6308 78.0944 21.4644C78.5019 21.298 78.9395 21.2178 79.3796 21.229C79.8211 21.2127 80.261 21.2893 80.6709 21.4539C81.0809 21.6185 81.4517 21.8674 81.7592 22.1845C82.0668 22.5016 82.3043 22.8798 82.4564 23.2946C82.6084 23.7093 82.6716 24.1514 82.6419 24.5922Z"></path><path d="M108.295 16.9415C106.266 16.9482 104.312 17.7094 102.813 19.0772C101.292 17.6471 99.2661 16.879 97.1796 16.9415C93.3708 16.9415 89.2593 19.8675 89.2593 24.5928V31.2351C89.2545 31.3295 89.2695 31.4238 89.3032 31.5121C89.3369 31.6004 89.3886 31.6807 89.4551 31.7479C89.5215 31.8151 89.6012 31.8678 89.6891 31.9025C89.7769 31.9373 89.8711 31.9534 89.9655 31.9497H93.1942C93.3748 31.9497 93.5481 31.878 93.6758 31.7503C93.8035 31.6225 93.8752 31.4493 93.8752 31.2687V24.6264C93.8507 24.1869 93.9175 23.747 94.0714 23.3346C94.2254 22.9222 94.4631 22.5461 94.7696 22.2301C95.0761 21.9141 95.4447 21.6651 95.8523 21.4987C96.2598 21.3323 96.6975 21.2521 97.1375 21.2632C97.579 21.2469 98.0189 21.3235 98.4289 21.4881C98.8388 21.6528 99.2096 21.9017 99.5172 22.2188C99.8248 22.5359 100.062 22.914 100.214 23.3288C100.366 23.7436 100.43 24.1857 100.4 24.6264V31.2687C100.4 31.4493 100.472 31.6225 100.599 31.7503C100.727 31.878 100.9 31.9497 101.081 31.9497H104.259C104.44 31.9497 104.613 31.878 104.741 31.7503C104.868 31.6225 104.94 31.4493 104.94 31.2687V24.6264C104.91 24.1857 104.974 23.7436 105.126 23.3288C105.278 22.914 105.515 22.5359 105.823 22.2188C106.13 21.9017 106.501 21.6528 106.911 21.4881C107.321 21.3235 107.761 21.2469 108.202 21.2632C108.642 21.2521 109.08 21.3323 109.488 21.4987C109.895 21.6651 110.264 21.9141 110.57 22.2301C110.877 22.5461 111.115 22.9222 111.269 23.3346C111.422 23.747 111.489 24.1869 111.465 24.6264V31.2687C111.465 31.4493 111.536 31.6225 111.664 31.7503C111.792 31.878 111.965 31.9497 112.146 31.9497H115.366C115.547 31.9498 115.721 31.8783 115.851 31.7508C115.98 31.6233 116.053 31.4501 116.055 31.2687V24.6264C116.081 20.0861 112.877 16.9415 108.295 16.9415Z"></path><path d="M125.96 16.9409C123.912 16.9424 121.946 17.7427 120.479 19.1716C119.013 20.6005 118.162 22.5453 118.107 24.5922C118.107 29.0988 121.336 32.2434 125.96 32.2434C128.007 32.244 129.974 31.4441 131.44 30.0146C132.905 28.585 133.754 26.639 133.805 24.5922C133.805 20.0855 130.576 16.9409 125.96 16.9409ZM129.222 24.5922C129.247 25.0317 129.18 25.4715 129.026 25.884C128.872 26.2964 128.634 26.6725 128.328 26.9885C128.021 27.3044 127.653 27.5535 127.245 27.7199C126.838 27.8863 126.4 27.9665 125.96 27.9553C125.158 27.8411 124.425 27.4415 123.894 26.8298C123.363 26.2182 123.071 25.4356 123.071 24.6258C123.071 23.816 123.363 23.0334 123.894 22.4218C124.425 21.8101 125.158 21.4105 125.96 21.2962C126.395 21.2807 126.829 21.3555 127.234 21.5161C127.64 21.6767 128.007 21.9195 128.313 22.2292C128.62 22.5389 128.859 22.9087 129.015 23.3155C129.172 23.7222 129.242 24.1569 129.222 24.5922Z"></path><path d="M146.82 17.773C145.879 17.2589 144.831 16.971 143.759 16.9322C142.725 16.8917 141.693 17.0587 140.725 17.4233C139.756 17.7878 138.871 18.3426 138.12 19.0549C137.369 19.7672 136.769 20.6226 136.354 21.5707C135.939 22.5188 135.718 23.5403 135.704 24.5751C135.704 29.0817 138.933 32.2263 143.557 32.2263C145.605 32.2269 147.571 31.4271 149.037 29.9975C150.503 28.5679 151.351 26.6219 151.402 24.5751V10.4077C151.402 10.2374 151.335 10.074 151.215 9.95282C151.096 9.83165 150.933 9.76247 150.763 9.76025H147.459C147.288 9.76247 147.126 9.83165 147.006 9.95282C146.887 10.074 146.82 10.2374 146.82 10.4077V17.773ZM146.82 24.5919C146.844 25.0314 146.777 25.4713 146.623 25.8837C146.469 26.2961 146.232 26.6722 145.925 26.9882C145.619 27.3042 145.25 27.5532 144.843 27.7196C144.435 27.886 143.997 27.9662 143.557 27.9551C142.756 27.8408 142.022 27.4412 141.491 26.8295C140.961 26.2179 140.669 25.4353 140.669 24.6255C140.669 23.8157 140.961 23.0332 141.491 22.4215C142.022 21.8099 142.756 21.4102 143.557 21.296C143.993 21.2804 144.427 21.3553 144.832 21.5158C145.237 21.6764 145.604 21.9192 145.911 22.2289C146.217 22.5386 146.456 22.9085 146.613 23.3152C146.769 23.7219 146.84 24.1566 146.82 24.5919Z"></path><path d="M161.155 16.9409C159.108 16.9424 157.142 17.7427 155.675 19.1716C154.208 20.6005 153.357 22.5453 153.302 24.5922C153.302 29.0988 156.531 32.2434 161.155 32.2434C163.203 32.244 165.169 31.4441 166.635 30.0146C168.101 28.585 168.95 26.639 169 24.5922C169 20.0855 165.771 16.9409 161.155 16.9409ZM164.418 24.5922C164.442 25.0317 164.375 25.4715 164.221 25.884C164.068 26.2964 163.83 26.6725 163.523 26.9885C163.217 27.3044 162.848 27.5535 162.441 27.7199C162.033 27.8863 161.595 27.9665 161.155 27.9553C160.717 27.9615 160.281 27.878 159.876 27.7098C159.471 27.5417 159.104 27.2925 158.799 26.9775C158.493 26.6626 158.255 26.2886 158.1 25.8784C157.944 25.4682 157.874 25.0305 157.893 24.5922C157.869 24.1526 157.935 23.7128 158.089 23.3003C158.243 22.8879 158.481 22.5119 158.787 22.1959C159.094 21.8799 159.463 21.6308 159.87 21.4644C160.278 21.298 160.715 21.2178 161.155 21.229C161.597 21.2127 162.037 21.2893 162.447 21.4539C162.857 21.6185 163.227 21.8674 163.535 22.1845C163.843 22.5016 164.08 22.8798 164.232 23.2946C164.384 23.7093 164.447 24.1514 164.418 24.5922Z"></path><path d="M71.3416 16.9406H66.423C66.2853 16.9442 66.1537 16.998 66.053 17.092L61.6809 21.4725C61.6081 21.5334 61.5199 21.5728 61.4261 21.5865C61.3323 21.6002 61.2365 21.5876 61.1494 21.5502C61.0623 21.5127 60.9872 21.4518 60.9326 21.3743C60.878 21.2968 60.846 21.2056 60.8401 21.111V10.2815C60.8401 10.2131 60.8266 10.1453 60.8004 10.0821C60.7742 10.0188 60.7358 9.96134 60.6874 9.91294C60.639 9.86453 60.5815 9.82613 60.5183 9.79994C60.455 9.77374 60.3872 9.76025 60.3188 9.76025H56.7454C56.677 9.76025 56.6092 9.77374 56.5459 9.79994C56.4827 9.82613 56.4252 9.86453 56.3768 9.91294C56.3284 9.96134 56.29 10.0188 56.2638 10.0821C56.2376 10.1453 56.2241 10.2131 56.2241 10.2815V31.7302C56.2241 31.7983 56.2377 31.8657 56.264 31.9285C56.2902 31.9913 56.3288 32.0482 56.3773 32.0959C56.4258 32.1437 56.4834 32.1813 56.5466 32.2065C56.6098 32.2318 56.6774 32.2442 56.7454 32.2431H60.2936C60.3616 32.2442 60.4292 32.2318 60.4924 32.2065C60.5556 32.1813 60.6132 32.1437 60.6617 32.0959C60.7102 32.0482 60.7487 31.9913 60.775 31.9285C60.8013 31.8657 60.8149 31.7983 60.8149 31.7302V28.9304C60.8137 28.8629 60.8266 28.796 60.8526 28.7338C60.8787 28.6715 60.9173 28.6154 60.9662 28.5689L62.3619 27.1647C62.4148 27.1119 62.4786 27.0712 62.5488 27.0456C62.6191 27.0199 62.6941 27.01 62.7686 27.0164C62.843 27.0228 62.9152 27.0454 62.9801 27.0827C63.0449 27.1199 63.1008 27.1709 63.1439 27.232L66.65 32.0329C66.6987 32.0984 66.7621 32.1516 66.8352 32.1881C66.9082 32.2246 66.9887 32.2435 67.0704 32.2431H71.3584C71.4581 32.2483 71.5571 32.2243 71.6433 32.1741C71.7295 32.1238 71.7992 32.0496 71.8438 31.9603C71.8884 31.8711 71.906 31.7707 71.8945 31.6716C71.883 31.5725 71.8428 31.4789 71.7788 31.4023L66.2716 23.8352C66.1979 23.7372 66.1623 23.6158 66.1716 23.4936C66.1809 23.3713 66.2344 23.2566 66.3221 23.1709L71.7032 17.7814C71.764 17.7087 71.8034 17.6205 71.8171 17.5267C71.8308 17.4328 71.8183 17.337 71.7808 17.2499C71.7433 17.1628 71.6825 17.0878 71.6049 17.0332C71.5274 16.9786 71.4363 16.9466 71.3416 16.9406Z"></path></svg>
